<svg xmlns="http://www.w3.org/2000/svg" viewBox="0 0 32 22">
    <title>
        password-show-icon
    </title>
    <g id="Layer_2" data-name="Layer 2">
        <g id="Icons_-_32px" data-name="Icons - 32px">
            <path d="M31,12a1,1,0,0,1-1-1c0-1.78-4.5-9-14-9S2,9.22,2,11a1,1,0,0,1-2,0C0,7.81,5.61,0,16,0S32,7.81,32,11A1,1,0,0,1,31,12Z"/>
            <path d="M16,22C5.61,22,0,14.19,0,11a1,1,0,0,1,2,0c0,1.78,4.5,9,14,9s14-7.22,14-9a1,1,0,0,1,2,0C32,14.19,26.39,22,16,22Z"/>
            <path d="M16,17a6,6,0,1,1,6-6A6,6,0,0,1,16,17ZM16,7a4,4,0,1,0,4,4A4,4,0,0,0,16,7Z"/>
        </g>
    </g>
</svg>
