<?xml version="1.0" ?><svg enable-background="new 0 0 52 52" id="Layer_1" version="1.1" viewBox="0 0 52 52" xml:space="preserve" xmlns="http://www.w3.org/2000/svg" xmlns:xlink="http://www.w3.org/1999/xlink"><g><g><g><path d="M25.987793,45.999691c-2.7568359,0-5-2.2431641-5-5s2.2431641-5,5-5s5,2.2431641,5,5     S28.7446289,45.999691,25.987793,45.999691z M25.987793,37.999691c-1.6542969,0-3,1.3457031-3,3s1.3457031,3,3,3s3-1.3457031,3-3     S27.6420898,37.999691,25.987793,37.999691z"/></g></g><g><g><path d="M33.2197266,36.390316c-1.9179688-2.2993164-4.4824219-3.5917969-7.2202148-3.6391602     c-2.7148438-0.0683594-5.2963867,1.1396484-7.2666016,3.3417969l-1.4902344-1.3330078     c2.362793-2.6416016,5.4604492-4.0874023,8.7910156-4.0083008c3.328125,0.0571289,6.4257813,1.6049805,8.722168,4.3574219     L33.2197266,36.390316z"/></g></g><g><g><path d="M37.2197266,30.140316c-2.9711914-3.5625-6.9511719-5.5649414-11.2055664-5.6386719     c-4.1948242-0.0522461-8.2275391,1.7670898-11.28125,5.1796875l-1.4902344-1.3330078     c3.4462891-3.8525391,7.9916992-5.9023438,12.8061523-5.8461914c4.8447266,0.0834961,9.3574219,2.3413086,12.7070313,6.3569336     L37.2197266,30.140316z"/></g></g><g><g><path d="M43.2587891,23.933773c-4.5410156-4.8388672-10.6391602-7.5664063-17.1708984-7.6801758     c-6.5390625-0.1123047-12.7001953,2.3920898-17.3950195,7.059082L7.2827148,21.893734     c5.0820313-5.0493164,11.7802734-7.7495117,18.8398438-7.6401367c7.0771484,0.1235352,13.6806641,3.0751953,18.5942383,8.3120117     L43.2587891,23.933773z"/></g></g><g><g><path d="M48.2661133,17.6920738c-5.8515625-6.1000977-13.7119141-9.5405273-22.1333008-9.6875     c-8.4213867-0.1240239-16.390625,3.0151367-22.4477539,8.9038086l-1.3945313-1.4335938     C8.7329102,9.2116051,17.234375,5.8561358,26.1674805,6.0050616c8.9580078,0.15625,17.3188477,3.8149419,23.5419922,10.3022461     L48.2661133,17.6920738z"/></g></g></g></svg>