<?xml version="1.0" ?><svg id="Layer_1" style="enable-background:new 0 0 73 60;" version="1.1" viewBox="0 0 73 60" xml:space="preserve" xmlns="http://www.w3.org/2000/svg" xmlns:xlink="http://www.w3.org/1999/xlink"><title/><g id="Layer_2"><g id="Layer_3"><path d="M18.2,31.8l-6.8-6.8C7.6,20.7,8,14.3,12.2,10.5C16,7,21.9,7,25.8,10.5l6.8,6.9l2.1-2.1l-6.9-6.9    C22.7,3.3,14.3,3.5,9.2,8.7c-4.9,5.1-4.9,13.2,0,18.3l6.8,6.9c5.2,5.1,13.5,5.1,18.7,0l-2.1-2.1C28.6,35.7,22.2,35.7,18.2,31.8z"/><path d="M63.8,33l-6.8-6.9c-5.2-5.1-13.5-5.1-18.6,0l2.1,2.1c4-4,10.4-4,14.4,0l6.8,6.9c4,4,4,10.4,0,14.4s-10.4,4-14.4,0    l-6.8-6.9l-2.1,2.1l6.8,6.8c5,5.3,13.3,5.6,18.6,0.6s5.6-13.3,0.6-18.6C64.1,33.3,64,33.1,63.8,33z"/><rect height="23.4" transform="matrix(0.7071 -0.7071 0.7071 0.7071 -10.4473 34.6268)" width="3" x="35.1" y="18.2"/></g></g></svg>