<svg height="700" viewBox="0 0 185.208 185.208" width="700" xmlns="http://www.w3.org/2000/svg">
  <g transform="translate(952.567 -1192.557)">
    <path
      d="M-172.905-1050.923c3.398-2.537 2.999-7.828 0-10.827l-36.204-36.205c-3-2.999-7.829-2.999-10.828 0l-58.717 58.615-58.638 58.536c-3.025 18.772-6.13 37.622-9.156 56.394l56.181-9.368c30.373-30.373 44.725-44.671 59.212-59.103 14.486-14.432 28.733-28.625 58.15-58.042z"
      fill="none" stroke-width="9.26" stroke-linecap="round" stroke-linejoin="round" stroke-miterlimit="6.2" />
    <rect height="67.307" ry="5.082" transform="rotate(135)" width="11.067" x="-601.165" y="865.359" />
    <path d="M-312.874-925.234l-32.299-32.298-1.275 33.122z" />
    <rect height="67.307" ry="5.082" transform="rotate(135)" width="11.067" x="-467.454" y="865.783" />
  </g>
  <g transform="translate(221.447 -535.307)">
    <ellipse cx="-352.555" cy="-1716.312" rx="5.334" ry="5.342" />
    <path d="M-352.555-1698.49v37.859" fill="none" stroke-width="9.26" stroke-linecap="round" stroke-linejoin="round" />
    <path
      d="M-436.722-1743.288a3.806 3.806 0 00-3.807 3.822v103.568a3.807 3.807 0 003.807 3.823h23.24v36.286l71.375-36.286h73.718a3.807 3.807 0 003.808-3.823v-103.568a3.807 3.807 0 00-3.808-3.822z"
      fill="none" stroke-width="9.26" stroke-linecap="round" stroke-linejoin="round" stroke-miterlimit="6.2" />
  </g>
  <g fill="none" stroke-width="9.26" stroke-linecap="round" stroke-linejoin="round">
    <path
      d="M-1049.366-945.194h41.123l69.633-108.803h65.031M-873.579-1053.997l-39.659-19.994M-873.579-1053.997l-39.659 19.993M-873.579-945.194l-39.659-19.993M-873.579-945.194l-39.659 19.993" />
    <path d="M-1049.413-1053.99h41.123l69.633 108.803h65.031" />
  </g>
  <g fill="none" stroke-width="9.26" stroke-linecap="round" stroke-linejoin="round">
    <path
      d="M-1019.807-1476.418h104.673a6.063 6.063 0 016.088 6.065v144.094a6.063 6.063 0 01-6.088 6.064h-104.673a6.063 6.063 0 01-6.089-6.064v-144.094a6.063 6.063 0 016.089-6.065z"
      stroke-miterlimit="6.2" />
    <path
      d="M-1025.45-1490.835h116.316M-1000.52-1456.242v115.871M-967.47-1456.242v115.871M-934.42-1456.242v115.871M-984.371-1496.142h34.159" />
  </g>
  <g fill="none" stroke-width="9.26" stroke-linecap="round" stroke-linejoin="round">
    <path d="M-2106.14-1372.404v50.635c0 1.264-.843 2.28-1.89 2.28h-172.173c-1.047 0-1.89-1.016-1.89-2.28v-50.635"
      stroke-miterlimit="6.2" />
    <path d="M-2194.117-1496.783v150.835M-2194.117-1345.948l-43.481-44.424M-2194.117-1345.948l43.482-44.424" />
  </g>
  <g fill="none" stroke-width="9.26" stroke-linecap="round" stroke-linejoin="round">
    <path d="M-1798.361-1320.278v-175.781M-1763.218-1320.178h-70.286M-1763.218-1496.159h-70.286" />
  </g>
  <g fill="none" stroke-width="9.26" stroke-linecap="round" stroke-linejoin="round">
    <path d="M-610.363-2204.845h175.822M-610.363-2264.03h175.822M-610.363-2145.66h175.822" />
  </g>
  <g stroke-width="6.482" fill="none" stroke-linecap="round" stroke-linejoin="round">
    <path d="M-127.05-111.185v84.94h-97.204v-120.686 0h59.76" stroke-miterlimit="6.2"
      transform="matrix(1.40223 0 0 1.45557 910.18 -1653.36)" />
    <path
      d="M-128.344-109.95h-36.15c-.717 0-1.294-.55-1.294-1.235v-34.51c0-.685.577-1.236 1.294-1.236l37.444 35.746c0 .684-.577 1.235-1.294 1.235z"
      transform="matrix(1.40223 0 0 1.45557 910.18 -1653.36)" />
  </g>
  <g stroke-width=".715" fill="none" stroke-linecap="round" stroke-linejoin="round">
    <g stroke-width="8.073">
      <path d="M1064.034-145.824v108.35h-118.37v-153.947 0h72.773" stroke-miterlimit="6.2"
        transform="matrix(1.15126 0 0 1.14297 -1679.299 -1277.358)" />
      <path
        d="M1062.458-144.248h-44.021a1.572 1.572 0 01-1.576-1.576v-44.021c0-.873.703-1.576 1.576-1.576l45.597 45.597c0 .873-.703 1.576-1.576 1.576z"
        transform="matrix(1.15126 0 0 1.14297 -1679.299 -1277.358)" />
    </g>
    <path d="M-203.727-65.836h56.15M-203.727-86.588h56.15M-203.727-45.084h56.15" stroke-width="6.618"
      transform="matrix(1.40338 0 0 1.39531 -274.77 -1289.345)" />
  </g>
  <g fill="none" stroke-linejoin="round">
    <path d="M-630.532-1867.369h131.961l43.987 43.987v131.961h-175.948v-175.948z" stroke-width="9.26" />
    <path stroke-width="9.26" d="M-578.897-1867.37h72.677v47.426h-72.677z" />
    <path d="M-528.621-1851.633v15.495" stroke-width="9.26" stroke-linecap="round" />
    <g stroke-width="8.037">
      <path d="M-599.363-1762.364h113.61v70.943h-113.61z" stroke-width="9.260472510000001" />
      <g stroke-linecap="round">
        <path d="M-505.148-1739.74h-74.82M-505.148-1714.045h-74.82" stroke-width="9.260472510000001" />
      </g>
    </g>
  </g>
  <g fill="none" stroke-width="9.26" stroke-linejoin="round">
    <path d="M1199.587-2252.592v22.493m-104.457 0v-62.72h64.22" stroke-miterlimit="6.2" />
    <path
      d="M1198.197-2251.202h-38.847c-.77 0-1.39-.62-1.39-1.39v-38.837c0-.77.62-1.39 1.39-1.39l40.237 40.227c0 .77-.62 1.39-1.39 1.39zM1206.6-2212.775h12.751"
      stroke-linecap="round" />
    <path d="M1095.706-2164.5h-36.321v-64.503h175.948v64.504h-33.492" />
    <path d="M1117.189-2156.841h60.34M1117.189-2137.989h60.34" stroke-linecap="round" />
    <path d="M1094.291-2177.959h106.135v61.087h-106.135z" />
  </g>
  <g fill="none" stroke-width="9.26" stroke-linecap="round" stroke-linejoin="round">
    <path d="M-1886.288-561.238l175.854-175.855M-1886.288-737.093l175.854 175.855" />
  </g>
  <g transform="translate(482.298 -865.099)" fill="none" stroke-width="9.26" stroke-linecap="round"
    stroke-linejoin="round">
    <ellipse cx="-344.666" cy="-2283.139" rx="57.372" ry="56.435" transform="rotate(-45.005)" />
    <path d="M-1738.941-1251.822l-79.106-79.12" />
  </g>
  <path d="M304.353-1849.053h-35.148v-18.316h35.148z" fill="none" stroke-width="9.26" stroke-linecap="round"
    stroke-linejoin="round" stroke-miterlimit="6.2" />
  <g fill="none" stroke-width="9.26" stroke-linecap="round" stroke-linejoin="round" stroke-miterlimit="6.2">
    <path d="M358.214-1691.421h-142.87v-157.632h142.87z" />
    <path d="M331.796-1836.45h-90.033v-6.89h90.033z" />
  </g>
  <g fill="none" stroke-width="7.957" stroke-linecap="round" stroke-linejoin="round">
    <path d="M-3788.422-212.559h68.377M-3788.422-237.183h68.377M-3788.422-187.934h68.377M-3788.991-163.31h68.377"
      transform="matrix(1.16492 0 0 1.16273 4660.502 -1532.594)" />
  </g>
  <g transform="translate(-1540.737 -705.196)" fill="none" stroke-linecap="round" stroke-linejoin="round">
    <ellipse cx="704.225" cy="-258.695" rx="23.977" ry="23.822" transform="matrix(.5075 -.86165 .8703 .49253 0 0)"
      stroke-width="9.261" />
    <path d="M185.263-702.973l-32.843-18.586" stroke-width="9.26" />
    <ellipse cx="-519.544" cy="454.936" rx="23.977" ry="23.822" transform="matrix(.5075 .86165 .8703 -.49253 0 0)"
      stroke-width="9.261" />
    <path d="M185.263-702.973l-32.843 18.587M185.27-702.97l98.805-29.777M185.27-702.97l98.805 29.778"
      stroke-width="9.26" />
  </g>
  <g stroke-width=".657" fill="none" stroke-linecap="round">
    <g transform="matrix(1.5227 0 0 1.52124 316.385 -1420.395)">
      <path d="M-1690.993 468.42v-19.234M-1690.993 564.764v-65.34" stroke-width="6.08454626" stroke-linejoin="round" />
      <circle cx="-1690.993" cy="483.921" r="15.502" stroke-width="6.085" stroke-linejoin="bevel" />
    </g>
    <g transform="matrix(1.5227 0 0 1.52124 318.893 -1420.395)">
      <path d="M-1650.368 512.32v-63.134M-1650.368 564.764v-21.44" stroke-width="6.08454626" stroke-linejoin="round" />
      <circle cx="-1650.368" cy="527.822" r="15.502" stroke-width="6.085" stroke-linejoin="bevel" />
    </g>
    <g transform="matrix(1.5227 0 0 1.52124 274.192 -1418.768)">
      <path d="M-1578.74 480.963v-32.846M-1578.74 563.695v-51.729" stroke-width="6.08454626" stroke-linejoin="round" />
      <circle cx="-1578.74" cy="496.465" r="15.502" stroke-width="6.085" stroke-linejoin="bevel" />
    </g>
  </g>
  <g fill="none" stroke-width="9.26" stroke-linecap="round" stroke-linejoin="round">
    <path stroke-miterlimit="6.2" d="M-2246.17-1867.371h116.03v175.953h-116.03z" />
    <path d="M-2196.162-1779.395h132.043M-2064.12-1779.395l-38.889 38.051M-2064.12-1779.395l-38.889-38.051" />
  </g>
  <g fill="none" stroke-width="9.26" stroke-linecap="round" stroke-linejoin="round">
    <path stroke-miterlimit="6.2" d="M-1866.525-1867.371h116.03v175.953h-116.03z" />
    <path d="M-1684.474-1779.395h-132.042M-1816.516-1779.395l38.89 38.051M-1816.516-1779.395l38.89-38.051" />
  </g>
  <g fill="none" stroke-width="9.26" stroke-linecap="round" stroke-linejoin="round">
    <path d="M-2472.024-1372.404v50.635c0 1.264-.843 2.28-1.89 2.28h-172.173c-1.048 0-1.89-1.016-1.89-2.28v-50.635"
      stroke-miterlimit="6.2" />
    <path d="M-2560-1345.948v-150.835M-2560-1496.783l-43.482 44.424M-2560-1496.783l43.481 44.424" />
  </g>
  <path d="M536.372-1001.198h175.782" fill="none" stroke-width="9.26" stroke-linecap="round" stroke-linejoin="round" />
  <g fill="none" stroke-width="9.26" stroke-linecap="round" stroke-linejoin="round">
    <path d="M157.113-1020.762h175.782M245.004-1108.654v175.783" />
  </g>
  <g transform="translate(-156.902 -990.181)" fill="none" stroke-width="9.26" stroke-linecap="round"
    stroke-linejoin="round">
    <ellipse cx="-840.6" cy="-2602.197" rx="57.372" ry="56.435" transform="rotate(-45.005)" />
    <path d="M-2315.174-1126.74l-79.106-79.12M-2472.248-1245.753h76.1M-2434.198-1283.803v76.1" />
  </g>
  <g transform="translate(307.534 -899.31)" fill="none" stroke-width="9.26" stroke-linecap="round"
    stroke-linejoin="round">
    <ellipse cx="-566.176" cy="-2456.273" rx="57.372" ry="56.435" transform="rotate(-45.005)" />
    <path d="M-2017.97-1217.612l-79.106-79.12M-2175.044-1336.625h76.099" />
  </g>
  <g transform="translate(236.723 -619.44)"><text style="line-height:3.3499999" x="-2507.133" y="-1592.797"
      font-weight="400" font-size="64.968" font-family="sans-serif" letter-spacing="0" word-spacing="0"
      stroke-width=".265"></text>
    <ellipse cx="-598.089" cy="-2883.944" rx="57.372" ry="56.435" transform="rotate(-45.005)" fill="none"
      stroke-width="9.26" stroke-linecap="round" stroke-linejoin="round" />
    <path d="M-2342.916-1497.48l-79.105-79.121" fill="none" stroke-width="9.26" stroke-linecap="round"
      stroke-linejoin="round" />
  </g>
  <g fill="none" stroke-width="9.26" stroke-linecap="round" stroke-linejoin="round" stroke-miterlimit="6.2">
    <path d="M-2647.974-715.139h153.947v153.947h-153.947z" />
    <path d="M-2625.974-715.139v-22h153.947v153.947h-22" />
  </g>
  <g fill="none" stroke-width="9.26" stroke-linecap="round" stroke-linejoin="round">
    <path
      d="M324.531-1342.516h-71.21c-61.035 0-61.035-93.208 5.202-93.208h125.551M384.074-1435.724l-38.89 38.051M384.074-1435.724l-38.89-38.051" />
  </g>
  <g fill="none" stroke-width="9.26" stroke-linecap="round" stroke-linejoin="round">
    <path
      d="M-159.482-1342.516h71.21c61.035 0 61.035-93.208-5.201-93.208H-219.025M-219.024-1435.724l38.889 38.051M-219.024-1435.724l38.889-38.051" />
  </g>
  <g fill="none" stroke-width="9.26" stroke-linecap="round" stroke-linejoin="round">
    <path d="M-1380.45-985.026l-95.204 87.928M-1380.45-985.026l-95.204-87.929" />
  </g>
  <g fill="none" stroke-width="9.26" stroke-linecap="round" stroke-linejoin="round">
    <path d="M-2607.603-1001.198l95.204 87.928M-2607.603-1001.198l95.204-87.929" />
  </g>
  <g fill="none">
    <g stroke-width="9.027" stroke-linecap="round" stroke-linejoin="round">
      <path d="M-158.467 96.672l38.89 38.05M-158.467 96.672l38.89-38.052"
        transform="matrix(1.02602 0 0 1.02564 -58.754 -1147.647)" />
    </g>
    <path
      d="M-221.392-980.059c0 27.68 16.681 52.636 42.264 63.229 25.583 10.593 55.03 4.738 74.611-14.836 19.58-19.573 25.438-49.01 14.841-74.583-10.597-25.574-35.13-42.246-62.82-42.246l-68.843.003"
      stroke-width="9.26" />
  </g>
  <path
    d="M-1270.8-661.27h-175.95l90.043-75.866zm-106.818 100.074h-46.533V-661.27h129.18v100.074h-46.533m-36.114-.118v-48.06h36.114v48.06"
    fill="none" stroke-width="9.26" stroke-linecap="round" stroke-linejoin="round" />
  <g fill="none">
    <g stroke-width="9.027" stroke-linecap="round" stroke-linejoin="round">
      <path d="M-158.467 96.672l38.89 38.05M-158.467 96.672l38.89-38.052"
        transform="matrix(-1.02602 0 0 1.02564 -683.137 -1181.514)" />
    </g>
    <path
      d="M-520.5-1013.926c0 27.681-16.68 52.636-42.264 63.23-25.583 10.592-55.03 4.737-74.61-14.836-19.581-19.574-25.439-49.01-14.842-74.584 10.597-25.574 35.13-42.245 62.821-42.245l68.842.003"
      stroke-width="9.26" />
  </g>
  <g transform="translate(3.226 -934.832)" fill="none" stroke-width="9.26" stroke-linecap="round"
    stroke-linejoin="round">
    <circle cx="-690.901" cy="-1105.169" r="87.974" transform="rotate(45)" />
    <circle cx="-690.901" cy="-1105.169" r="59.536" transform="rotate(45)" />
    <path
      d="M335.03-1227.915l20.05 20.05M230.783-1332.162l20.05 20.05M250.833-1227.915l-20.05 20.05M355.08-1332.162l-20.05 20.05" />
  </g>
  <g transform="translate(-47.294 -955.833)" fill="none" stroke-width="9.26" stroke-linecap="round"
    stroke-linejoin="round">
    <ellipse cx="452.398" cy="693.554" rx="31.199" ry="31.635" transform="rotate(-90.006) skewX(-.011)" />
    <path
      d="M837.762-452.34l-112.587-.006M781.102-426.26l.006-26.059M799.03-430.775l.006-21.572M816.957-426.283l.006-26.058" />
  </g>
  <path
    d="M-112.512-183.042l38.32 95.425 102.595 6.956-78.912 65.932 25.087 99.723-87.09-54.676-87.09 54.676 25.088-99.723-78.913-65.932 102.595-6.956z"
    transform="matrix(.62427 0 0 .62366 1139.519 -970.624)" fill="none" stroke-width="14.841" stroke-linecap="round"
    stroke-linejoin="round" />
  <g transform="translate(-773.59 169.757)" fill="none" stroke-linecap="round" stroke-linejoin="round">
    <ellipse cx="518.3" cy="619.601" rx="23.977" ry="23.822" transform="matrix(.5075 -.86165 .8703 .49253 0 0)"
      stroke-width="9.261" />
    <ellipse cx="406.422" cy="684.842" rx="23.977" ry="23.822" transform="matrix(.5075 -.86165 .8703 .49253 0 0)"
      stroke-width="9.261" />
    <ellipse cx="525.334" cy="762.389" rx="23.977" ry="23.822" transform="matrix(.5075 -.86165 .8703 .49253 0 0)"
      stroke-width="9.261" />
    <path d="M827.84-128.567l76.632 38.525M823.824-23.72l84.74-42.6" stroke-width="9.26" />
  </g>
  <g fill="none" stroke-width="9.26" stroke-linecap="round" stroke-linejoin="round">
    <path d="M-2194.117-1048.8l87.929 95.204M-2194.117-1048.8l-87.928 95.204" />
  </g>
  <g fill="none" stroke-width="9.26" stroke-linecap="round" stroke-linejoin="round">
    <path d="M-1829.17-955.385l87.928-95.204M-1829.17-955.385l-87.929-95.204" />
  </g>
  <g fill="none" stroke-width="9.26" stroke-linecap="round">
    <g stroke-linejoin="round">
      <path d="M-964.675-649.165l95.203-62.485M-964.675-649.165l95.203 62.484" />
    </g>
    <path d="M-973.985-737.094v175.857" />
  </g>
  <g fill="none" stroke-width="9.26" stroke-linecap="round">
    <g stroke-linejoin="round">
      <path d="M-512.842-649.165l-95.204-62.485M-512.842-649.165l-95.204 62.484" />
    </g>
    <path d="M-503.533-737.094v175.857" />
  </g>
  <g transform="translate(1666.946 -473.23)" fill="none" stroke-width="9.26" stroke-linecap="round"
    stroke-linejoin="round">
    <ellipse cx="-1833.87" cy="-222.459" rx="41.306" ry="41.449" />
    <path
      d="M-1921.576-88.029h175.413m-175.413 0a87.974 86.257 0 01-.268-6.724 87.974 86.257 0 0187.974-86.257 87.974 86.257 0 0187.975 86.257v0a87.974 86.257 0 01-.268 6.726" />
  </g>
  <path
    d="M312.117-676.978c-5.379-20.223-23.863-34.319-45.004-34.319-1.688 0-3.375.09-5.053.272m-39.875 34.013c-.523-.02-1.047-.029-1.57-.029-22.902 0-41.467 18.364-41.467 41.017 0 9.847 2.163 21.36 10.074 26.8 42.647 29.32 113.167 29.327 155.81 0 7.91-5.44 10.064-16.953 10.064-26.8 0-22.653-18.565-41.017-41.466-41.017-.523 0-1.047.01-1.57.03m-89.932.033c5.379-20.223 23.863-34.319 45.003-34.319 1.689 0 3.376.09 5.054.272M-185.754-1867.368H-9.806v175.948h-175.948z"
    fill="none" stroke-width="9.26" stroke-linecap="round" stroke-linejoin="round" />
  <g fill="none" stroke-width="9.26" stroke-linecap="round" stroke-linejoin="round">
    <path
      d="M-164.455-1820.935h25.93v25.93h-25.93zM-110.745-1820.935h25.93v25.93h-25.93zM-57.035-1820.935h25.93v25.93h-25.93zM-164.455-1763.785h25.93v25.93h-25.93zM-110.745-1763.785h25.93v25.93h-25.93zM-57.035-1763.785h25.93v25.93h-25.93z" />
  </g>
  <path fill="none" stroke-width="9.26" stroke-linecap="round" stroke-linejoin="round"
    d="M-185.754-1849.066H-9.806v139.344h-175.948z" />
  <g fill="none" stroke-width="9.26" stroke-linecap="round" stroke-linejoin="round">
    <path stroke-miterlimit="6.2" d="M-1451.745-1867.371h116.03v175.953h-116.03z" />
    <path d="M-1517.766-1779.395h132.042M-1385.724-1779.395l-38.889 38.051M-1385.724-1779.395l-38.889-38.051" />
  </g>
  <g fill="none" stroke-width="9.26" stroke-linecap="round" stroke-linejoin="round">
    <path stroke-miterlimit="6.2" d="M-1046.404-1867.37h116.03v175.952h-116.03z" />
    <path d="M-980.382-1779.395h-132.043M-1112.424-1779.395l38.889 38.051M-1112.424-1779.395l38.889-38.051" />
  </g>
  <g transform="translate(112.94 -229.91)">
    <path d="M510.393-419.255h99.06M510.393-478.44h99.06M510.393-360.07h99.06" fill="none" stroke-width="9.26"
      stroke-linecap="round" stroke-linejoin="round" />
    <circle cx="491.237" cy="-478.44" r="4.63" />
    <circle cx="491.237" cy="-419.255" r="4.63" />
    <circle cx="491.237" cy="-360.069" r="4.63" />
    <path d="M433.623-419.255h38.457M433.623-478.44h38.457M433.623-360.07h38.457" fill="none" stroke-width="9.26"
      stroke-linecap="round" stroke-linejoin="round" />
  </g>
  <path
    d="M-2550.331-1828.398l-21.048-23.281h-35.36m-32.912 23.28l21.048-23.28h35.36m111.216 144.569h-175.948v-121.288h175.948v121.288z"
    fill="none" stroke-width="9.26" stroke-linecap="round" stroke-linejoin="round" />
  <g fill="none" stroke-width="9.26" stroke-linecap="round" stroke-linejoin="round">
    <path d="M988.494-1832.187h175.948v105.584H988.494z" />
    <path d="M1164.441-1832.187l-175.962-.337 87.691 78.011z" />
    <path d="M1048.018-1779.233l-59.539 52.967 175.962-.337-59.796-52.617-28.46 25.044z" />
  </g>
  <path d="M-941.634-2138.879v-133.063h-42.622v155.068h61.811v-175.943h-83.077v153.938" fill="none"
    stroke-width="9.26" />
  <g transform="translate(214.065 183.713)" fill="none" stroke-width="9.26" stroke-linecap="round"
    stroke-linejoin="round">
    <path
      d="M763.417-840.016a150.885 154.112 0 0150.689-8.956 150.885 154.112 0 0150.686 8.955M744.758-872.992a187.686 191.7 0 0169.355-13.569 187.686 191.7 0 0169.338 13.562M726.192-905.84a224.488 229.289 0 0187.901-18.31 224.488 229.289 0 0187.923 18.319" />
    <ellipse cx="814.104" cy="-798.318" rx="18.761" ry="18.767" />
  </g>
</svg>