<svg xmlns="http://www.w3.org/2000/svg" viewBox="0 0 26 32">
  <title>password-icon</title>
  <g id="Layer_2" data-name="Layer 2">
    <g id="Icons_-_32px" data-name="Icons - 32px">
      <path
        d="M23,32H3a3,3,0,0,1-3-3V14a3,3,0,0,1,3-3H23a3,3,0,0,1,3,3V29A3,3,0,0,1,23,32ZM3,13a1,1,0,0,0-1,1V29a1,1,0,0,0,1,1H23a1,1,0,0,0,1-1V14a1,1,0,0,0-1-1Z" />
      <circle cx="13" cy="19" r="2" />
      <path d="M13,25a1,1,0,0,1-1-1V20a1,1,0,0,1,2,0v4A1,1,0,0,1,13,25Z" />
      <path d="M6,13a1,1,0,0,1-1-1V8A8,8,0,0,1,21,8v3.49a1,1,0,1,1-2,0V8A6,6,0,0,0,7,8v4A1,1,0,0,1,6,13Z" />
    </g>
  </g>
</svg>